<?xml version="1.0" encoding="iso-8859-1"?>
<!-- Generator: Adobe Illustrator 19.1.0, SVG Export Plug-In . SVG Version: 6.00 Build 0)  -->
<svg version="1.1" id="Capa_1" xmlns="http://www.w3.org/2000/svg" xmlns:xlink="http://www.w3.org/1999/xlink" x="0px" y="0px"
	 viewBox="0 0 208.359 208.359" style="enable-background:new 0 0 208.359 208.359;" xml:space="preserve">
<g>
	<g>
		<g>
			<path style="fill:#010002;" d="M208.359,74.434l-5.491-0.01l0.088-12.887c-6.507-25.041-58.924-56.462-97.477-14.128v-0.098
				c-0.762,0.879-1.319,1.417-1.319,1.417s-0.567-0.528-1.319-1.417v0.078C64.317,5.056,11.9,36.496,5.393,61.527l0.078,12.887
				L0,74.434v107.315c127.921-0.684,80.408-0.684,208.359,0V74.434z M37.654,159.776c13.326-7.933,29.056-7.885,42.275-0.234
				L37.654,159.776z M20.41,154.618l-0.508-91.117c18.085-28.187,54.83-31.773,77.253-0.283l0.508,91.361
				C74.722,134.462,43.145,134.276,20.41,154.618z M128.429,159.542c13.229-7.621,28.929-7.67,42.256,0.234L128.429,159.542z
				 M187.939,154.618c-22.725-20.341-54.322-20.146-77.243-0.039l0.518-91.361c22.423-31.499,59.178-27.894,77.243,0.283
				L187.939,154.618z"/>
		</g>
	</g>
</g>
<g>
</g>
<g>
</g>
<g>
</g>
<g>
</g>
<g>
</g>
<g>
</g>
<g>
</g>
<g>
</g>
<g>
</g>
<g>
</g>
<g>
</g>
<g>
</g>
<g>
</g>
<g>
</g>
<g>
</g>
</svg>
